<?xml version="1.0" standalone="no"?>
<!DOCTYPE svg PUBLIC "-//W3C//DTD SVG 20010904//EN"
 "http://www.w3.org/TR/2001/REC-SVG-20010904/DTD/svg10.dtd">
<svg version="1.0" xmlns="http://www.w3.org/2000/svg"
 width="300.000000pt" height="300.000000pt" viewBox="0 0 300.000000 300.000000"
 preserveAspectRatio="xMidYMid meet">
<metadata>
Created by potrace 1.10, written by Peter Selinger 2001-2011
</metadata>
<g transform="translate(0.000000,300.000000) scale(0.100000,-0.100000)"
fill="#000000" stroke="none">
<path d="M1434 2756 c-37 -17 -1246 -847 -1288 -885 -94 -86 -62 -255 57 -300
36 -14 103 -14 128 -1 19 11 19 2 19 -493 l0 -503 -35 -13 c-48 -17 -92 -56
-115 -102 -28 -53 -28 -167 -1 -200 l19 -24 1282 0 1282 0 19 24 c27 33 27
147 -1 200 -23 46 -67 85 -115 102 l-35 13 0 497 0 497 63 -5 c47 -3 70 0 96
14 103 54 134 194 61 276 -16 19 -83 71 -150 116 l-120 82 0 200 c0 190 1 199
19 199 11 0 33 11 48 24 27 23 28 28 28 120 0 86 -2 98 -23 118 -22 23 -26 23
-268 23 l-246 0 -19 -24 c-16 -19 -19 -40 -19 -115 0 -103 11 -130 60 -141 30
-6 30 -8 30 -71 l0 -64 -77 53 c-369 256 -539 371 -568 383 -43 17 -90 17
-131 0z m220 -159 c66 -46 348 -240 626 -431 278 -191 513 -356 523 -368 10
-12 17 -37 17 -60 0 -54 -34 -88 -90 -88 -36 0 -67 18 -282 167 -780 537 -893
613 -924 619 -18 3 -47 1 -64 -4 -16 -6 -281 -184 -587 -395 -307 -211 -568
-387 -580 -391 -28 -9 -88 16 -102 42 -13 25 -14 77 -2 100 10 19 19 25 761
536 422 291 521 355 549 356 26 0 60 -19 155 -83z m956 -2 l0 -55 -203 0 -203
0 0 55 0 55 203 0 203 0 0 -55z m34 -80 c-4 -8 -11 -15 -17 -15 -6 0 -23 -12
-39 -27 -27 -26 -28 -26 -48 -8 -26 24 -17 35 29 35 22 0 44 6 51 15 7 8 16
15 21 15 5 0 6 -7 3 -15z m-354 -20 c0 -3 -7 -17 -16 -31 l-17 -25 -23 22
c-33 31 -30 39 16 39 22 0 40 -2 40 -5z m230 -215 c0 -93 -2 -170 -4 -170 -3
0 -39 25 -82 55 -42 31 -90 63 -105 72 -29 17 -29 18 -29 115 l0 98 110 0 110
0 0 -170z m-477 -290 l517 -355 0 -532 0 -533 -580 0 -580 0 0 443 c0 421 -1
444 -20 474 -37 62 -51 64 -350 61 l-268 -3 -28 -25 c-54 -51 -55 -55 -54
-518 l1 -427 -120 -3 -121 -3 0 533 1 533 521 358 c350 240 529 357 543 355
11 -2 253 -163 538 -358z m217 292 c0 -13 5 -33 11 -44 13 -24 5 -21 -48 19
l-33 24 27 24 c30 25 43 19 43 -23z m323 -261 c15 -18 -70 28 -85 46 -8 10 -7
13 4 13 8 0 23 9 34 21 l19 21 8 -43 c5 -24 14 -50 20 -58z m-2163 -360 c0 -6
-4 -13 -10 -16 -5 -3 -10 -22 -10 -41 0 -40 -9 -42 -39 -10 l-22 24 33 26 c35
27 48 32 48 17z m2207 -17 l34 -26 -22 -24 c-30 -32 -36 -30 -41 9 -3 17 -8
40 -13 50 -10 24 2 21 42 -9z m-1323 -193 c3 -5 6 -204 6 -442 l1 -434 -271
-3 -270 -2 0 433 c0 323 3 436 12 445 14 14 513 17 522 3z m-881 -896 l18 -25
-41 0 c-41 0 -43 4 -17 38 13 17 19 15 40 -13z m331 0 l16 -25 -40 0 c-44 0
-48 5 -23 32 21 24 28 23 47 -7z m630 0 l16 -25 -40 0 c-44 0 -48 5 -23 32 21
24 28 23 47 -7z m1244 -3 c14 -21 13 -22 -27 -22 l-42 0 18 25 c21 28 31 28
51 -3z m37 -76 c42 -18 63 -50 71 -109 l7 -47 -1232 0 c-677 0 -1234 1 -1238
3 -14 4 -5 87 12 113 36 55 -12 53 1213 54 955 0 1138 -2 1167 -14z"/>
<path d="M1662 1530 c-56 -35 -62 -64 -62 -305 0 -241 6 -270 62 -305 32 -19
46 -20 321 -18 l289 3 34 37 34 38 0 245 0 245 -34 38 -34 37 -289 3 c-275 2
-289 1 -321 -18z m348 -28 c0 -5 -9 -17 -20 -27 -16 -15 -22 -15 -35 -5 -27
22 -18 40 20 40 19 0 35 -4 35 -8z m-80 -132 l0 -100 -120 0 -120 0 0 83 c0
45 4 87 8 94 5 8 44 13 112 16 58 1 108 4 113 5 4 1 7 -43 7 -98z m313 81 c4
-4 9 -47 10 -94 l2 -87 -120 0 -120 0 2 97 c1 54 2 98 2 98 85 0 218 -8 224
-14z m-223 -226 c0 -2 -10 -15 -22 -29 l-23 -25 -28 26 -27 27 27 28 26 27 24
-25 c12 -14 23 -27 23 -29z m-341 -21 c-27 -29 -39 -23 -39 20 0 44 9 50 37
24 l23 -22 -21 -22z m621 21 c0 -39 -5 -42 -32 -18 -17 15 -17 17 -2 35 25 27
34 22 34 -17z m-370 -140 l0 -95 -114 0 c-95 0 -115 3 -120 16 -3 9 -6 51 -6
95 l0 79 120 0 120 0 0 -95z m323 10 c-1 -47 -5 -90 -8 -95 -4 -6 -57 -10
-118 -10 l-112 0 0 95 0 95 120 0 120 0 -2 -85z m-261 -122 c26 -24 22 -33
-15 -33 -43 0 -51 9 -30 32 20 22 22 22 45 1z"/>
<path d="M1160 1141 c-5 -11 -10 -50 -10 -86 0 -36 5 -75 10 -86 13 -24 65
-26 74 -3 11 29 7 169 -6 182 -18 18 -56 14 -68 -7z"/>
</g>
</svg>
